<svg width="42" height="145" viewBox="0 0 42 145" fill="none" xmlns="http://www.w3.org/2000/svg">
<g opacity="0.7">
<g opacity="0.7">
<path opacity="0.7" d="M40.1977 3.33693C39.3151 3.33693 38.5931 2.63062 38.5931 1.76734C38.5931 0.904053 39.3037 0.197739 40.1977 0.197739C41.0802 0.197739 41.8023 0.892842 41.8023 1.76734C41.8023 2.63062 41.0802 3.33693 40.1977 3.33693Z" fill="black" fill-opacity="0.7"/>
<path opacity="0.7" d="M40.1977 17.4186C39.3151 17.4186 38.5931 16.7234 38.5931 15.8489C38.5931 14.9856 39.3037 14.2793 40.1977 14.2793C41.0802 14.2793 41.8023 14.9856 41.8023 15.8489C41.8023 16.7234 41.0802 17.4186 40.1977 17.4186Z" fill="black" fill-opacity="0.7"/>
<path opacity="0.7" d="M40.1977 31.5002C39.3151 31.5002 38.5931 30.7938 38.5931 29.9305C38.5931 29.0672 39.3037 28.3609 40.1977 28.3609C41.0802 28.3609 41.8023 29.056 41.8023 29.9305C41.8023 30.805 41.0802 31.5002 40.1977 31.5002Z" fill="black" fill-opacity="0.7"/>
<path opacity="0.7" d="M40.1977 45.5929C39.3151 45.5929 38.5931 44.8978 38.5931 44.0233C38.5931 43.16 39.3037 42.4537 40.1977 42.4537C41.0802 42.4537 41.8023 43.16 41.8023 44.0233C41.8023 44.8866 41.0802 45.5929 40.1977 45.5929Z" fill="black" fill-opacity="0.7"/>
<path opacity="0.7" d="M40.1977 59.6745C39.3151 59.6745 38.5931 58.9682 38.5931 58.1049C38.5931 57.2416 39.3037 56.5353 40.1977 56.5353C41.0802 56.5353 41.8023 57.2304 41.8023 58.1049C41.8023 58.9794 41.0802 59.6745 40.1977 59.6745Z" fill="black" fill-opacity="0.7"/>
<path opacity="0.7" d="M40.1977 73.7673C39.3151 73.7673 38.5931 73.061 38.5931 72.1977C38.5931 71.3345 39.3037 70.6281 40.1977 70.6281C41.0802 70.6281 41.8023 71.3345 41.8023 72.1977C41.8023 73.061 41.0802 73.7673 40.1977 73.7673Z" fill="black" fill-opacity="0.7"/>
<path opacity="0.7" d="M40.1977 87.8489C39.3151 87.8489 38.5931 87.1426 38.5931 86.2793C38.5931 85.416 39.3037 84.7097 40.1977 84.7097C41.0802 84.7097 41.8023 85.4048 41.8023 86.2793C41.8023 87.1426 41.0802 87.8489 40.1977 87.8489Z" fill="black" fill-opacity="0.7"/>
<path opacity="0.7" d="M40.1977 101.931C39.3151 101.931 38.5931 101.224 38.5931 100.361C38.5931 99.4976 39.3037 98.7913 40.1977 98.7913C41.0802 98.7913 41.8023 99.4976 41.8023 100.361C41.8023 101.235 41.0802 101.931 40.1977 101.931Z" fill="black" fill-opacity="0.7"/>
<path opacity="0.7" d="M40.1976 116.023C39.3151 116.023 38.593 115.317 38.593 114.454C38.593 113.59 39.3036 112.884 40.1976 112.884C41.0802 112.884 41.8022 113.579 41.8022 114.454C41.8022 115.317 41.0802 116.023 40.1976 116.023Z" fill="black" fill-opacity="0.7"/>
<path opacity="0.7" d="M40.1976 130.105C39.3151 130.105 38.593 129.399 38.593 128.535C38.593 127.672 39.3036 126.966 40.1976 126.966C41.0802 126.966 41.8022 127.672 41.8022 128.535C41.8022 129.41 41.0802 130.105 40.1976 130.105Z" fill="black" fill-opacity="0.7"/>
<path opacity="0.7" d="M40.1976 144.198C39.3151 144.198 38.593 143.503 38.593 142.628C38.593 141.754 39.3036 141.059 40.1976 141.059C41.0802 141.059 41.8022 141.754 41.8022 142.628C41.8022 143.503 41.0802 144.198 40.1976 144.198Z" fill="black" fill-opacity="0.7"/>
</g>
<g opacity="0.7">
<path opacity="0.7" d="M25.7909 1.76734C25.7909 2.6342 26.5093 3.33693 27.3955 3.33693C28.2817 3.33693 29.0001 2.6342 29.0001 1.76734C29.0001 0.900467 28.2817 0.197738 27.3955 0.197738C26.5093 0.197738 25.7909 0.900467 25.7909 1.76734Z" fill="black" fill-opacity="0.7"/>
<path opacity="0.7" d="M25.7909 15.8489C25.7909 16.7158 26.5093 17.4186 27.3955 17.4186C28.2817 17.4186 29.0001 16.7158 29.0001 15.8489C29.0001 14.9821 28.2817 14.2793 27.3955 14.2793C26.5093 14.2793 25.7909 14.9821 25.7909 15.8489Z" fill="black" fill-opacity="0.7"/>
<path opacity="0.7" d="M25.7909 29.9417C25.7909 30.8086 26.5093 31.5113 27.3955 31.5113C28.2817 31.5113 29.0001 30.8086 29.0001 29.9417C29.0001 29.0749 28.2817 28.3721 27.3955 28.3721C26.5093 28.3721 25.7909 29.0749 25.7909 29.9417Z" fill="black" fill-opacity="0.7"/>
<path opacity="0.7" d="M25.7909 44.0233C25.7909 44.8902 26.5093 45.5929 27.3955 45.5929C28.2817 45.5929 29.0001 44.8902 29.0001 44.0233C29.0001 43.1565 28.2817 42.4537 27.3955 42.4537C26.5093 42.4537 25.7909 43.1565 25.7909 44.0233Z" fill="black" fill-opacity="0.7"/>
<path opacity="0.7" d="M25.7909 58.1161C25.7909 58.983 26.5093 59.6857 27.3955 59.6857C28.2817 59.6857 29.0001 58.983 29.0001 58.1161C29.0001 57.2493 28.2817 56.5465 27.3955 56.5465C26.5093 56.5465 25.7909 57.2493 25.7909 58.1161Z" fill="black" fill-opacity="0.7"/>
<path opacity="0.7" d="M27.3955 73.7673C26.513 73.7673 25.7909 73.061 25.7909 72.1977C25.7909 71.3345 26.5015 70.6281 27.3955 70.6281C28.2895 70.6281 29.0001 71.3345 29.0001 72.1977C29.0001 73.061 28.278 73.7673 27.3955 73.7673Z" fill="black" fill-opacity="0.7"/>
<path opacity="0.7" d="M25.7909 86.2793C25.7909 87.1462 26.5093 87.8489 27.3955 87.8489C28.2817 87.8489 29.0001 87.1462 29.0001 86.2793C29.0001 85.4125 28.2817 84.7097 27.3955 84.7097C26.5093 84.7097 25.7909 85.4125 25.7909 86.2793Z" fill="black" fill-opacity="0.7"/>
<path opacity="0.7" d="M27.3955 101.931C26.513 101.931 25.7909 101.224 25.7909 100.361C25.7909 99.4976 26.5015 98.7913 27.3955 98.7913C28.2895 98.7913 29.0001 99.4976 29.0001 100.361C29.0001 101.235 28.278 101.931 27.3955 101.931Z" fill="black" fill-opacity="0.7"/>
<path opacity="0.7" d="M25.7909 114.454C25.7909 115.321 26.5093 116.023 27.3955 116.023C28.2817 116.023 29.0001 115.321 29.0001 114.454C29.0001 113.587 28.2817 112.884 27.3955 112.884C26.5093 112.884 25.7909 113.587 25.7909 114.454Z" fill="black" fill-opacity="0.7"/>
<path opacity="0.7" d="M27.3955 130.105C26.513 130.105 25.7909 129.399 25.7909 128.535C25.7909 127.672 26.5015 126.966 27.3955 126.966C28.2895 126.966 29.0001 127.672 29.0001 128.535C29.0001 129.41 28.278 130.105 27.3955 130.105Z" fill="black" fill-opacity="0.7"/>
<path opacity="0.7" d="M25.7909 142.628C25.7909 143.495 26.5093 144.198 27.3955 144.198C28.2817 144.198 29.0001 143.495 29.0001 142.628C29.0001 141.761 28.2817 141.059 27.3955 141.059C26.5093 141.059 25.7909 141.761 25.7909 142.628Z" fill="black" fill-opacity="0.7"/>
</g>
<g opacity="0.7">
<path opacity="0.7" d="M14.6046 3.33693C13.7221 3.33693 13 2.63062 13 1.76733C13 0.904053 13.7221 0.197738 14.6046 0.197738C15.4871 0.197738 16.2092 0.892841 16.2092 1.76733C16.1977 2.63062 15.4871 3.33693 14.6046 3.33693Z" fill="black" fill-opacity="0.7"/>
<path opacity="0.7" d="M14.6046 17.4186C13.7221 17.4186 13 16.7234 13 15.8489C13 14.9856 13.7221 14.2793 14.6046 14.2793C15.4871 14.2793 16.2092 14.9856 16.2092 15.8489C16.1977 16.7234 15.4871 17.4186 14.6046 17.4186Z" fill="black" fill-opacity="0.7"/>
<path opacity="0.7" d="M14.6046 31.5002C13.7221 31.5002 13 30.7938 13 29.9305C13 29.0672 13.7221 28.3609 14.6046 28.3609C15.4871 28.3609 16.2092 29.056 16.2092 29.9305C16.1977 30.805 15.4871 31.5002 14.6046 31.5002Z" fill="black" fill-opacity="0.7"/>
<path opacity="0.7" d="M14.6046 45.5929C13.7221 45.5929 13 44.8978 13 44.0233C13 43.16 13.7221 42.4537 14.6046 42.4537C15.4871 42.4537 16.2092 43.16 16.2092 44.0233C16.1977 44.8866 15.4871 45.5929 14.6046 45.5929Z" fill="black" fill-opacity="0.7"/>
<path opacity="0.7" d="M14.6046 59.6745C13.7221 59.6745 13 58.9682 13 58.1049C13 57.2416 13.7221 56.5353 14.6046 56.5353C15.4871 56.5353 16.2092 57.2304 16.2092 58.1049C16.1977 58.9794 15.4871 59.6745 14.6046 59.6745Z" fill="black" fill-opacity="0.7"/>
<path opacity="0.7" d="M14.6046 73.7673C13.7221 73.7673 13 73.061 13 72.1977C13 71.3345 13.7221 70.6281 14.6046 70.6281C15.4871 70.6281 16.2092 71.3345 16.2092 72.1977C16.1977 73.061 15.4871 73.7673 14.6046 73.7673Z" fill="black" fill-opacity="0.7"/>
<path opacity="0.7" d="M14.6046 87.8489C13.7221 87.8489 13 87.1426 13 86.2793C13 85.416 13.7221 84.7097 14.6046 84.7097C15.4871 84.7097 16.2092 85.4048 16.2092 86.2793C16.1977 87.1426 15.4871 87.8489 14.6046 87.8489Z" fill="black" fill-opacity="0.7"/>
<path opacity="0.7" d="M14.6046 101.931C13.7221 101.931 13 101.224 13 100.361C13 99.4976 13.7221 98.7913 14.6046 98.7913C15.4871 98.7913 16.2092 99.4976 16.2092 100.361C16.1977 101.235 15.4871 101.931 14.6046 101.931Z" fill="black" fill-opacity="0.7"/>
<path opacity="0.7" d="M14.6046 116.023C13.7221 116.023 13 115.317 13 114.454C13 113.59 13.7221 112.884 14.6046 112.884C15.4871 112.884 16.2092 113.579 16.2092 114.454C16.1977 115.317 15.4871 116.023 14.6046 116.023Z" fill="black" fill-opacity="0.7"/>
<path opacity="0.7" d="M14.6046 130.105C13.7221 130.105 13 129.399 13 128.535C13 127.672 13.7221 126.966 14.6046 126.966C15.4871 126.966 16.2092 127.672 16.2092 128.535C16.1977 129.41 15.4871 130.105 14.6046 130.105Z" fill="black" fill-opacity="0.7"/>
<path opacity="0.7" d="M14.6046 144.198C13.7221 144.198 13 143.503 13 142.628C13 141.754 13.7221 141.059 14.6046 141.059C15.4871 141.059 16.2092 141.754 16.2092 142.628C16.2092 143.503 15.4871 144.198 14.6046 144.198Z" fill="black" fill-opacity="0.7"/>
</g>
<g opacity="0.7">
<path opacity="0.7" d="M0.197695 1.76733C0.197695 2.6342 0.916079 3.33693 1.80226 3.33693C2.68844 3.33693 3.40686 2.6342 3.40686 1.76733C3.40686 0.900466 2.68844 0.197737 1.80226 0.197737C0.916079 0.197737 0.197695 0.900465 0.197695 1.76733Z" fill="black" fill-opacity="0.7"/>
<path opacity="0.7" d="M0.197643 15.8489C0.197643 16.7158 0.916033 17.4186 1.80222 17.4186C2.68841 17.4186 3.40683 16.7158 3.40683 15.8489C3.40683 14.9821 2.68841 14.2793 1.80222 14.2793C0.916033 14.2793 0.197643 14.9821 0.197643 15.8489Z" fill="black" fill-opacity="0.7"/>
<path opacity="0.7" d="M0.197643 29.9417C0.197643 30.8086 0.916033 31.5113 1.80222 31.5113C2.68841 31.5113 3.40683 30.8086 3.40683 29.9417C3.40683 29.0749 2.68841 28.3721 1.80222 28.3721C0.916033 28.3721 0.197643 29.0749 0.197643 29.9417Z" fill="black" fill-opacity="0.7"/>
<path opacity="0.7" d="M0.197643 44.0233C0.197643 44.8902 0.916033 45.5929 1.80222 45.5929C2.68841 45.5929 3.40683 44.8902 3.40683 44.0233C3.40683 43.1565 2.68841 42.4537 1.80222 42.4537C0.916033 42.4537 0.197643 43.1565 0.197643 44.0233Z" fill="black" fill-opacity="0.7"/>
<path opacity="0.7" d="M0.197643 58.1161C0.197643 58.983 0.916033 59.6857 1.80222 59.6857C2.68841 59.6857 3.40683 58.983 3.40683 58.1161C3.40683 57.2493 2.68841 56.5465 1.80222 56.5465C0.916033 56.5465 0.197643 57.2493 0.197643 58.1161Z" fill="black" fill-opacity="0.7"/>
<path opacity="0.7" d="M1.80222 73.7673C0.919699 73.7673 0.197644 73.061 0.197644 72.1977C0.197644 71.3345 0.919699 70.6281 1.80222 70.6281C2.68474 70.6281 3.40683 71.3345 3.40683 72.1977C3.39537 73.061 2.68474 73.7673 1.80222 73.7673Z" fill="black" fill-opacity="0.7"/>
<path opacity="0.7" d="M0.197643 86.2793C0.197643 87.1462 0.916033 87.8489 1.80222 87.8489C2.68841 87.8489 3.40683 87.1462 3.40683 86.2793C3.40683 85.4125 2.68841 84.7097 1.80222 84.7097C0.916033 84.7097 0.197643 85.4125 0.197643 86.2793Z" fill="black" fill-opacity="0.7"/>
<path opacity="0.7" d="M1.80222 101.931C0.919699 101.931 0.197644 101.224 0.197644 100.361C0.197644 99.4976 0.919699 98.7913 1.80222 98.7913C2.68474 98.7913 3.40683 99.4976 3.40683 100.361C3.39537 101.235 2.68474 101.931 1.80222 101.931Z" fill="black" fill-opacity="0.7"/>
<path opacity="0.7" d="M0.197643 114.454C0.197643 115.321 0.916033 116.023 1.80222 116.023C2.68841 116.023 3.40683 115.321 3.40683 114.454C3.40683 113.587 2.68841 112.884 1.80222 112.884C0.916033 112.884 0.197643 113.587 0.197643 114.454Z" fill="black" fill-opacity="0.7"/>
<path opacity="0.7" d="M1.80222 130.105C0.919699 130.105 0.197644 129.399 0.197644 128.535C0.197644 127.672 0.919699 126.966 1.80222 126.966C2.68474 126.966 3.40683 127.672 3.40683 128.535C3.39537 129.41 2.68474 130.105 1.80222 130.105Z" fill="black" fill-opacity="0.7"/>
<path opacity="0.7" d="M0.197643 142.628C0.197643 143.495 0.916033 144.198 1.80222 144.198C2.68841 144.198 3.40683 143.495 3.40683 142.628C3.40683 141.761 2.68841 141.059 1.80222 141.059C0.916033 141.059 0.197643 141.761 0.197643 142.628Z" fill="black" fill-opacity="0.7"/>
</g>
</g>
</svg>
